<svg width="165" height="44" viewBox="0 0 165 44" fill="none" xmlns="http://www.w3.org/2000/svg">
<g clip-path="url(#clip0_15_2619)">
<mask id="mask0_15_2619" style="mask-type:luminance" maskUnits="userSpaceOnUse" x="0" y="0" width="165" height="44">
<path d="M165 0.867188H0V43.1331H165V0.867188Z" fill="white"/>
</mask>
<g mask="url(#mask0_15_2619)">
<path d="M131.584 34.0991C129.859 31.9271 129.848 28.8517 131.475 26.6063L145.617 7.07454C146.073 6.44255 146.636 5.91959 147.261 5.50568C147.03 5.3232 146.794 5.14295 146.554 4.96937C136.631 -2.21402 122.656 0.265007 115.849 10.6106C109.724 19.9192 111.787 32.5435 120.555 39.4243C122.378 40.8552 124.352 41.9434 126.406 42.7022C129.403 43.8104 132.775 42.7222 134.648 40.1342L136.07 38.1692C135.801 37.9956 135.536 37.8131 135.274 37.624C133.856 36.5981 132.625 35.4098 131.586 34.1013L131.584 34.0991Z" fill="url(#paint0_linear_15_2619)"/>
<path d="M157.862 7.6895C156.277 6.44777 154.564 5.502 152.779 4.84107C150.905 4.14899 148.867 4.44719 147.265 5.50422C148.602 6.55681 149.784 7.73846 150.801 9.02248C152.786 11.5216 152.799 15.0621 150.928 17.6479L136.071 38.1656C144.628 43.7222 156.215 41.4346 161.95 32.7202C167.271 24.6333 165.477 13.6646 157.862 7.6895Z" fill="url(#paint1_linear_15_2619)"/>
<path d="M150.799 9.02314C149.78 7.74134 148.601 6.55969 147.263 5.50488C146.638 5.91656 146.075 6.44174 145.619 7.07374L131.477 26.6056C129.85 28.851 129.861 31.9264 131.586 34.0983C132.623 35.4046 133.855 36.5929 135.273 37.621C135.536 37.8102 135.8 37.9927 136.07 38.1662L150.926 17.6486C152.798 15.0628 152.786 11.5245 150.799 9.02314Z" fill="url(#paint2_linear_15_2619)"/>
<path style="mix-blend-mode:multiply" d="M150.799 9.02314C149.78 7.74134 148.601 6.55969 147.263 5.50488C146.638 5.91656 146.075 6.44174 145.619 7.07374L131.477 26.6056C129.85 28.851 129.861 31.9264 131.586 34.0983C132.623 35.4046 133.855 36.5929 135.273 37.621C135.536 37.8102 135.8 37.9927 136.07 38.1662L150.926 17.6486C152.798 15.0628 152.786 11.5245 150.799 9.02314Z" fill="url(#paint3_linear_15_2619)"/>
<g style="mix-blend-mode:overlay" opacity="0.29">
<g style="mix-blend-mode:overlay">
<path d="M150.801 9.02461C149.782 7.74281 148.603 6.56116 147.265 5.50635C146.64 5.91804 146.077 6.44322 145.621 7.07521L131.479 26.607C129.852 28.8524 129.863 31.9278 131.588 34.0997C132.625 35.406 133.857 36.5943 135.275 37.6224C135.538 37.8116 135.802 37.9941 136.072 38.1676L150.928 17.65C152.8 15.0642 152.788 11.5259 150.801 9.02461Z" fill="white"/>
</g>
</g>
<path d="M75.3225 17.6048C75.3225 14.4292 75.3203 11.2537 75.327 8.08037C75.327 7.49065 75.3114 6.89204 75.4071 6.31345C75.6474 4.85585 76.8113 3.8411 78.1376 3.86113C79.3704 3.87893 80.3941 4.82692 80.5654 6.31568C80.6989 7.48398 80.6455 8.67454 80.6522 9.85396C80.6656 12.0681 80.6478 14.2846 80.6767 16.4988C80.6767 16.5055 80.6767 16.5144 80.6767 16.521C80.7012 17.1219 81.46 17.449 81.9028 17.0395L81.9095 17.0329C83.2002 15.8067 84.4108 14.4915 85.7393 13.3077C86.8876 12.2818 87.8801 12.1082 88.8437 12.689C89.9608 13.3633 90.3814 14.7875 89.9408 15.9914C89.6737 16.7213 87.1079 19.3005 86.8386 19.5965C86.4559 20.017 86.2311 20.5445 86.2445 21.1186C86.2534 21.5214 86.3802 21.9197 86.605 22.2557C86.8498 22.6229 87.0879 22.999 87.3349 23.3684C87.869 24.1651 88.3964 24.9662 88.9127 25.774C89.2175 26.2502 89.5113 26.7331 89.8139 27.2116C90.5883 28.4311 90.4904 30 89.1575 30.8412C88.0025 31.5689 86.3201 31.1927 85.5658 30.1446C84.5732 28.7649 83.6698 27.3139 82.6639 25.9409C82.635 25.9008 82.6038 25.8652 82.5682 25.8296C82.0631 25.3178 81.1885 25.507 80.8569 26.1456C80.808 26.2413 80.7635 26.3392 80.7301 26.4394C80.5943 26.8422 80.6722 27.3162 80.6522 27.759C80.5476 30.0623 79.6842 31.2973 78.1531 31.3307C76.3996 31.3685 75.3559 30.011 75.3314 27.5721C75.3047 24.9885 75.3247 22.4026 75.3225 19.819C75.3225 19.0802 75.3225 18.3414 75.3225 17.6048Z" fill="#25245F"/>
<path d="M62.8296 13.0254C65.1907 13.6997 65.1306 13.0009 66.8753 12.6872C68.6578 12.3689 70.7919 12.9965 72.2962 14.3762C73.3532 15.3442 73.2598 16.9843 72.4965 17.8655C71.6798 18.8113 70.3379 18.996 69.3988 18.5131C69.134 18.3774 68.8603 18.255 68.5866 18.137C66.1253 17.0755 64.5075 18.0792 64.4296 20.7807C64.3696 22.9215 64.423 25.0645 64.4052 27.2075C64.4007 27.8707 64.4118 28.5494 64.2672 29.1903C63.9779 30.4654 63.2035 31.3578 61.7948 31.3066C60.473 31.2576 59.565 30.521 59.229 29.2214C59.12 28.7986 59.091 28.3446 59.0888 27.904C59.0799 23.8406 59.0554 19.7793 59.0955 15.7159C59.1133 13.8488 60.1481 12.2599 62.8229 13.0232L62.8296 13.0254Z" fill="#25245F"/>
<path d="M55.9214 15.4606C55.77 13.1685 54.0031 11.791 52.1895 12.5944C50.8075 13.2063 49.6704 12.9994 48.3374 12.63C42.1176 10.9009 36.5609 16.1683 36.3873 21.429C36.1648 28.2563 42.7518 32.6847 48.3485 31.058C49.301 30.7798 50.4359 30.6285 51.3728 30.8644C54.2345 31.5899 55.8524 30.5684 55.9659 27.6421C56.0371 25.7995 56.0682 17.6682 55.9214 15.4628V15.4606ZM46.0854 26.1756C43.6642 26.1756 41.7014 24.2129 41.7014 21.7917C41.7014 19.3705 43.6642 17.4078 46.0854 17.4078C48.5065 17.4078 50.4693 19.3705 50.4693 21.7917C50.4693 24.2129 48.5065 26.1756 46.0854 26.1756Z" fill="#25245F"/>
<path d="M110.655 15.4606C110.503 13.1685 108.737 11.791 106.923 12.5944C105.541 13.2063 104.404 12.9994 103.071 12.63C96.851 10.9009 91.2943 16.1683 91.1207 21.429C90.8982 28.2563 97.4852 32.6847 103.082 31.058C104.034 30.7798 105.169 30.6285 106.106 30.8644C108.968 31.5899 110.586 30.5684 110.699 27.6421C110.77 25.7995 110.802 17.6682 110.655 15.4628V15.4606ZM100.819 26.1756C98.3976 26.1756 96.4348 24.2129 96.4348 21.7917C96.4348 19.3705 98.3976 17.4078 100.819 17.4078C103.24 17.4078 105.203 19.3705 105.203 21.7917C105.203 24.2129 103.24 26.1756 100.819 26.1756Z" fill="#25245F"/>
<path d="M33.3686 17.2893C32.8768 15.716 31.9288 14.3051 30.6359 13.277C28.998 11.9752 26.9129 11.361 24.8344 11.3788C23.7306 11.3877 22.6291 11.5835 21.5899 11.9552C20.5528 12.3268 19.6805 12.9833 18.7103 13.4862C18.5567 13.5663 18.3943 13.6397 18.2274 13.7043C17.582 13.9513 16.8632 13.8089 16.3225 13.3794L16.3158 13.3749C14.678 12.0731 12.5928 11.4589 10.5143 11.4767C9.41058 11.4856 8.30903 11.6814 7.2698 12.0531C6.94713 12.1688 6.64003 12.3112 6.34183 12.4692C5.73877 12.7874 5.01776 12.7029 4.4948 12.2645C4.05641 11.8973 3.4934 11.677 2.87698 11.677H2.53873C1.14121 11.677 0.0107422 12.8097 0.0107422 14.205V28.7053C0.0107422 30.1028 1.14344 31.2333 2.53873 31.2333H2.87698C4.27449 31.2333 5.40496 30.1006 5.40496 28.7053V20.2067C5.60302 18.7313 6.40192 17.5942 7.84394 16.9199C9.35494 16.2122 11.1508 16.4615 12.4482 17.4985C13.7277 18.5199 14.1394 19.9374 14.1394 21.5108V28.525C14.1394 29.6511 14.8226 30.6947 15.8885 31.0597C17.0034 31.4424 18.0694 31.1153 18.7592 30.4166C19.2978 29.9225 19.6405 29.2149 19.6405 28.4271C19.6405 25.8791 19.6494 23.3289 19.6827 20.7808C19.7072 18.9761 20.5172 17.5964 22.1684 16.822C23.6795 16.1143 25.4753 16.3636 26.7727 17.4006C28.0522 18.422 28.4639 19.8395 28.4639 21.4128V28.4271C28.4639 29.5776 29.1805 30.6346 30.2776 30.984C32.1424 31.5782 33.8582 30.2029 33.8582 28.4271V23.7383C33.8582 21.6065 34.0206 19.35 33.373 17.2893H33.3686Z" fill="#25245F"/>
<path d="M149.835 27.9551C149.688 26.5665 148.409 25.5206 146.862 25.5206H144.752C144.051 25.5206 143.615 25.1445 143.442 24.7907C143.344 24.5927 143.226 24.1943 143.553 23.7626L149.143 16.4079C149.862 15.4621 149.853 14.2026 149.125 13.2612C148.589 12.469 147.676 11.9995 146.675 11.9995H136.645C135.099 11.9995 133.821 13.0454 133.672 14.434C133.595 15.1683 133.828 15.8849 134.336 16.4457C134.89 17.0621 135.702 17.4137 136.565 17.4137H139.107C139.71 17.4137 140.081 17.7342 140.23 18.0346C140.331 18.2349 140.395 18.5464 140.137 18.8847L134.316 26.5443C133.425 27.7148 133.595 29.2881 134.707 30.2094C135.099 30.5321 135.577 30.7502 136.098 30.8392C136.358 30.9037 136.601 30.9349 136.837 30.9349H146.947C147.81 30.9349 148.622 30.581 149.176 29.9669C149.681 29.4038 149.917 28.6895 149.839 27.9551H149.835Z" fill="white"/>
<path d="M131.559 15.4606C131.408 13.1685 129.641 11.791 127.827 12.5944C126.445 13.2063 125.308 12.9994 123.975 12.63C117.755 10.9009 112.199 16.1683 112.025 21.429C111.802 28.2563 118.389 32.6847 123.986 31.058C124.939 30.7798 126.074 30.6285 127.01 30.8644C129.872 31.5899 131.49 30.5684 131.604 27.6421C131.675 25.7995 131.706 17.6682 131.559 15.4628V15.4606ZM121.723 26.1756C119.302 26.1756 117.339 24.2129 117.339 21.7917C117.339 19.3705 119.302 17.4078 121.723 17.4078C124.144 17.4078 126.107 19.3705 126.107 21.7917C126.107 24.2129 124.144 26.1756 121.723 26.1756Z" fill="white"/>
</g>
</g>
<defs>
<linearGradient id="paint0_linear_15_2619" x1="120.564" y1="10.6618" x2="145.893" y2="33.1132" gradientUnits="userSpaceOnUse">
<stop stop-color="#0099FF"/>
<stop offset="0.27" stop-color="#009BFB"/>
<stop offset="0.47" stop-color="#00A1F2"/>
<stop offset="0.65" stop-color="#00ADE2"/>
<stop offset="0.82" stop-color="#00BDCB"/>
<stop offset="0.98" stop-color="#00D2AD"/>
<stop offset="1" stop-color="#00D6A9"/>
</linearGradient>
<linearGradient id="paint1_linear_15_2619" x1="163.441" y1="36.7747" x2="139.347" y2="16.513" gradientUnits="userSpaceOnUse">
<stop stop-color="#00D6A9"/>
<stop offset="0.27" stop-color="#00D3AB"/>
<stop offset="0.47" stop-color="#00CDB5"/>
<stop offset="0.65" stop-color="#00C1C5"/>
<stop offset="0.82" stop-color="#00B1DB"/>
<stop offset="0.97" stop-color="#009DF8"/>
<stop offset="1" stop-color="#0099FF"/>
</linearGradient>
<linearGradient id="paint2_linear_15_2619" x1="124.244" y1="6.5085" x2="149.571" y2="28.9621" gradientUnits="userSpaceOnUse">
<stop stop-color="#0099FF"/>
<stop offset="0.27" stop-color="#009BFB"/>
<stop offset="0.47" stop-color="#00A1F2"/>
<stop offset="0.65" stop-color="#00ADE2"/>
<stop offset="0.82" stop-color="#00BDCB"/>
<stop offset="0.98" stop-color="#00D2AD"/>
<stop offset="1" stop-color="#00D6A9"/>
</linearGradient>
<linearGradient id="paint3_linear_15_2619" x1="161.735" y1="38.8004" x2="137.639" y2="18.5387" gradientUnits="userSpaceOnUse">
<stop offset="0.45" stop-color="#00D6A9"/>
<stop offset="0.57" stop-color="#00D3AC"/>
<stop offset="0.69" stop-color="#00CAB8"/>
<stop offset="0.81" stop-color="#00BDCC"/>
<stop offset="0.92" stop-color="#00A9E7"/>
<stop offset="1" stop-color="#0099FF"/>
</linearGradient>
<clipPath id="clip0_15_2619">
<rect width="165" height="44" fill="white"/>
</clipPath>
</defs>
</svg>
