<svg width="70" height="98" viewBox="0 0 70 98" fill="none" xmlns="http://www.w3.org/2000/svg">
<path d="M11.2123 8.45238C13.2775 6.32674 15.3492 4.20852 17.6169 1.87779C15.9994 0.311783 13.8849 0.476577 12.2881 1.75384C8.716 4.62896 5.04437 7.52603 2.134 11.0172C-1.08005 14.8687 0.0448799 17.6605 4.74758 19.2336C8.96287 20.6435 13.2151 21.9153 17.4664 23.201C18.7869 23.605 20.2375 24.2765 21.3532 22.3031C20.0079 19.6661 17.0425 19.54 14.7352 18.4509C12.3458 17.3287 9.82757 16.4652 6.48973 15.1514C8.60362 14.341 9.83336 13.7569 11.1195 13.3868C23.4362 9.86313 35.5862 9.91502 47.443 15.1838C52.8973 17.6101 57.6443 21.0034 61.1218 25.9257C66.2644 33.2028 66.3999 39.8214 61.1935 47.0661C59.014 50.0969 56.1172 52.6136 53.4818 55.427C51.8705 54.0929 50.8067 53.1855 49.7207 52.2977C44.4007 47.999 38.6569 48.004 32.7585 50.8484C30.4135 51.9815 28.309 53.6275 28.5022 56.6217C28.6979 59.4687 30.6937 61.1492 33.0775 62.25C36.6732 63.9165 40.5069 63.8433 44.2982 63.122C46.7686 62.6562 49.1777 61.8359 51.8114 61.1206C53.8456 62.8595 54.1412 65.4601 54.6097 67.8817C55.8115 74.0606 54.3295 79.8781 51.8431 85.5005C50.1284 89.3739 48.2776 93.1829 46.3901 97.2351C49.6043 96.6537 50.4275 95.8482 54.3649 86.3081C56.1003 82.1131 57.5377 77.535 57.7834 73.059C58.0389 68.4293 56.6795 63.7214 55.8859 58.0658C57.3431 56.78 59.7396 54.9554 61.8 52.7944C71.0349 43.1026 71.4034 31.8064 63.028 21.4746C57.5178 14.6801 50.3256 10.5962 42.0321 8.26207C33.4423 5.8466 24.791 5.8062 16.13 7.98968C14.6186 8.37398 13.1071 8.75828 11.5957 9.14258C11.4704 8.91032 11.345 8.67807 11.2197 8.44582L11.2123 8.45238ZM48.9692 57.1145C41.8315 60.8021 35.3444 60.3684 32.7063 56.024C38.1996 51.1898 44.7705 51.6286 48.9692 57.1145Z" fill="#0A78CD"/>
</svg>
